<svg xmlns="http://www.w3.org/2000/svg" xmlns:xlink="http://www.w3.org/1999/xlink" xmlns:svgjs="http://svgjs.dev/svgjs" version="1.1" width="2000" height="2250" viewBox="0 0 2000 2250"><g transform="matrix(1,0,0,1,0.000012850225743932242,0)"><svg xmlns="http://www.w3.org/2000/svg" xmlns:xlink="http://www.w3.org/1999/xlink" viewBox="0 0 320 360" data-background-color="#051726" preserveAspectRatio="xMidYMid meet" height="2250" width="2000"><g id="tight-bounds" transform="matrix(1,0,0,1,0.0000020560361235766322,0)"><svg viewBox="0 0 320 360" height="360" width="320"><g><svg/></g><g><svg viewBox="0 0 320 360" height="360" width="320"><g><path transform="translate(-15.58119,4.24857) scale(3.51065,3.51065)" d="M51.5 85.2c-0.4-0.5-0.8-0.2-0.8-0.5-2.4 0.6-6.9-1-8.8-0.8 0.4-0.6-0.6-0.5-0.6-0.9-0.4 0.6-0.8 0-1.4 0.2-0.6-1.5-3-0.4-3.3-2.3-1.4 0-1.9-0.8-3.3-1.6 0.1-0.1 0.2-0.1 0.3-0.2-0.7-0.1-0.7-0.5-1.3-0.5l0.2-0.4c-1.1-0.2-1.5-1.9-3.1-2.5-0.5-0.1-1.6-1.8-2.2-2.2-0.3-0.2-0.8-0.2-0.1-0.3-0.1-0.1-0.1-0.3 0-0.4-0.7-0.2-0.8-0.8-1.7-1.1-0.1-0.3 0.2-0.5 0-0.7-0.2-0.1-0.5 0.1-0.7 0-0.1 1.8 1.9 2 2.5 3.5-0.2-0.2-0.5-0.8-0.7-0.4-0.1 0.3 0.8 1.4 0.8 0.8-0.3 0.2-0.4-0.3-0.2-0.4 0.3 0.5 0.9 0.4 0.9 0.8-0.3 0.3-0.7-0.3-0.6 0.2 0.9 0.5 0.8 1 1.3 1.7-0.4-0.5-0.5 0.4-0.9 0-0.1-1.5-1.8-1.2-1.8-2.7-0.2-0.5-0.4-0.1-0.7-0.3 0.4-0.4-1.2-1.8-1.2-1.3-0.5-0.6-0.2-0.8-0.3-1.2-0.4-0.1-0.1 0.4-0.4 0.1 0.4-0.7-0.5-1.6-1.1-2.3l0.4-0.2c-0.7-0.4-0.8-1.2-1.3-2.1-0.6 0.9 1.2 2.9 0.9 3.3 0 0.1 0.7 0.9 0.9 1.3 0.8 1.4 1.4 3.1 2.5 3.9-0.2-0.1-0.1-0.7 0.2-0.4 0 0.3-0.2 0.6-0.2 0.9 0.6 0.6 1.1 1.1 1.7 1.7-1.3-0.8-2.6-1.6-3.5-2.8 0.5-0.1 1 0.8 1.4 0.7-1-0.8-0.7-1.1-1.1-2.1-0.4-0.3 0.1 0.4-0.3 0.5-1.3-1.2-2.3-1.9-2.9-3 0.1-0.1 0.2-0.2 0.2-0.4-0.1-0.1-0.1-0.1-0.2-0.2 0.6 0.6 0.8 1.1 1.5 1.2-0.3-0.3 0-0.4-0.4-0.7-0.2-0.4-0.5 0.2-0.7-0.1 0.2-0.3 0-0.7 0-1-0.2 0-0.4 0-0.5-0.3-0.2-0.1-0.3 0-0.4 0.2-0.1-0.1-0.1-0.3-0.2-0.4v-0.1c-0.1-0.1-0.2-0.3-0.3-0.4-0.8-2.1-1.3-4.9-2.4-6.7 0.3-1.2-0.2-3.6-0.5-4.2 0.3-0.5 0.1-2.8-0.1-3.2-0.5 0.2 0.1 1.3-0.4 1.6-0.5-2.2 0.3-4.7 0.1-6.7 0.2 0 0.4 0 0.4-0.1-0.3-0.3 0.2-0.9 0.1-1.6 0.4-0.9-0.9 1.3-0.9 2.2-0.1 0.2-0.5 0-0.4 0.5 0 0.7 0.2 2.1-0.2 3.1-0.2 0-0.2-0.2-0.4-0.1-0.1 0.5-0.2 1.1-0.3 1.6-0.1-0.2-0.2-0.5-0.2-0.6-0.5-2.5 0-5.4-0.2-7.5 0.4 0 0.4-0.6 0.7-0.8-0.1 0.8-0.3 1.8 0.2 2 0.4-3.9 1.2-8.2 3-12.4 1.3-3.1 3.2-6.2 5.5-8.7 0.2 0.3-0.1 1 0 1.3 2-2.1 3.3-4.6 5.5-6 0.1 0.5-0.9 0.9-0.9 1.3 0.9-0.9 1.2-0.6 2.2-0.9 0.3-0.4-0.4 0-0.5-0.4 0.6-0.4 1-0.9 1.4-1.2 0 0.1-0.1 0.1-0.1 0.2 1.1-0.3 1.2-0.9 2-1.1-0.1-0.1-0.3-0.2-0.6-0.1 0.2-0.1 0.5-0.3 0.8-0.4-0.1 0-0.1 0.1-0.2 0.1 0.6-0.3 0.1 0.1 0.1 0.3 0.1 0 0.2-0.1 0.2-0.1-0.6 0.4-1 0.6-1.2 1.3 0.3-0.2 0.4 0 0.8-0.3 0.4-0.2-0.1-0.5 0.2-0.7 0.3 0.2 0.7 0.1 1 0.1 0-0.2 0.1-0.4 0.3-0.5 0.1-0.2 0-0.3-0.1-0.3 0.1-0.1 0.2-0.1 0.4-0.2 0 0 0.1 0 0.1 0.1 1.7-0.8 3.6-1.5 5.4-2.1 1.1-0.1 2.5-0.1 3.1-0.8-0.2 0-0.4 0.1-0.5 0 0.1 0 0.3-0.1 0.4-0.1 0.2 0.2 0.5 0 0.2 0.4 0.1 0 0.1 0 0.2-0.1 0 0.1 0 0.1 0.1 0.2 0.1 0 0.2-0.1 0.3-0.3 0.1 0 0.2 0 0.3-0.1l-0.1 0.1c0.8-0.2 1.5-0.1 2.6-0.3 0-0.1 0-0.2 0-0.3 0.2 0 0.3-0.1 0.5-0.1v0.1c0.4-0.2 0.8 0.2 0.8 0 0.1 0 0.1 0 0.2 0 0 0.2-0.1 0.3-0.1 0.4 0.5 0 0.8 0 1-0.3-0.1-0.1-0.2-0.1-0.3-0.1 0.2 0 0.4-0.1 0.6-0.2 0.3 0.1 0.4 0.2 0.4 0.6 0.5-0.9 2.1 0.2 2.8 0 0.3 0 0.2-0.4 0.4-0.6 0.1 0 0.2 0 0.3 0 0.5 0.4 1.2 0.8 2.1 0.9-0.8-0.2 0.1-0.3 0.2-0.4-0.2 0-0.2-0.1-0.2-0.2 0.3 0 0.6 0.1 0.9 0.1 0 0.2 0.1 0.3 0.3 0.3 0.2 0 0.2-0.1 0.2-0.3 0.3 0 0.5 0 0.8 0.1-0.1 0.4 0.5 0.5 0.7 0.8-0.8-0.2-1.7-0.5-2 0 3.2 0.7 6.7 1.7 10.1 3.4 0 0 0 0 0 0.1h0.1c0.6 0.3 1.2 0.6 1.8 0.9 0.4 0.2 0.7 0.4 1.1 0.7 0 0.1 0 0.2 0.2 0.2h0.1c0.4 0.3 0.8 0.5 1.2 0.8 0.4 0.6 0.8 1.4 1.5 1.2 1.5 2.3 3.1 3.2 4.4 5.6 0.1-0.4 0.4 0.9 0.9 1-0.8-0.1 0.5 0.5-0.3 0.4 0.7 0.7 0.9 1 1 1.8-0.2-0.4-0.3-0.5-0.4-0.1-0.1 0.6 0.7-0.1 1 0.5-0.6 0-0.4 0.4-0.3 0.9 0.3-0.3 0.2-0.6 0.5-0.5 0.4 0.4-0.2 0.5-0.1 0.8 0.3-0.4 0.4-0.2 0.8 0-0.5 0.1 0.3 0.8-0.3 0.5 0.4 0.5 0.5 0.8 0.3 1.3-0.4-0.6-0.1-1-0.7-0.9 1.2 1 0.6 3.3 2 3.5-0.9 0.2 0 0.6-0.5 0.7 0.6 0.2 0.3 1 1 1.2-0.1 0.5-0.3 0.8-0.4 1.3 0.3 0.4 0.4 1.2 0.9 1.3-0.3 0.3-0.1 1.1-0.4 1.4 0.4-0.2 0.6-0.2 0.9 0.2-0.5 0.4-0.1 0.8-0.4 0.9 0.9 2.3-0.2 7 0.3 8.8-0.6-0.3-0.4 0.7-0.8 0.7 0.7 0.3 0.1 0.8 0.4 1.3-1.4 0.8 0 3-1.9 3.5 0.2 1.4-0.6 2-1.2 3.5-0.1-0.1-0.1-0.2-0.2-0.3-0.1 0.7-0.5 0.8-0.3 1.4l-0.4-0.2c0 1.1-1.7 1.7-2.1 3.4-0.1 0.5-1.6 1.8-2 2.5-0.2 0.3-0.1 0.8-0.3 0.1-0.1 0.1-0.3 0.1-0.4 0.1-0.1 0.7-0.7 0.9-0.9 1.8-0.2 0.1-0.5-0.2-0.7 0.1 0 0.2 0.2 0.5 0.1 0.7 1.8-0.1 1.8-2.2 3.2-2.9-0.1 0.3-0.7 0.6-0.3 0.8 0.3 0 1.2-1 0.7-0.9 0.3 0.2-0.3 0.4-0.4 0.3 0.5-0.4 0.3-0.9 0.7-1 0.3 0.2-0.3 0.7 0.3 0.6 0.4-0.9 0.9-1 1.5-1.5-0.4 0.4 0.5 0.5 0.1 0.9-1.5 0.3-1 2-2.5 2.2-0.4 0.3-0.1 0.4-0.2 0.7-0.5-0.3-1.6 1.4-1.2 1.3-0.5 0.5-0.8 0.3-1.2 0.4-0.1 0.4 0.4 0.1 0.2 0.4-0.7-0.3-1.6 0.7-2.2 1.4l-0.3-0.3c-0.3 0.8-1.1 0.9-2 1.5 1 0.5 2.7-1.6 3.2-1.3 0.1 0 0.9-0.8 1.2-1.1 1.3-1 2.9-1.8 3.5-2.9-0.1 0.2-0.7 0.2-0.4-0.1 0.3-0.1 0.6 0.1 0.9 0.1 1.6-2.2 3.6-4 5.1-6.6 0.1-0.1 0.2-0.3 0.3-0.5-0.2 0.6-0.5 1.1-0.7 1.7-1.6 1.1-2.2 4.3-4.1 4.8 0.1 1.1-0.9 1.4-1.4 2.7-0.3 0.4-0.5-0.3-0.8 0.2 0.3 1.4-2.5 1.3-2.4 2.6-0.2 0.1-0.5 0.2-0.7 0.4h-0.1c-0.1 0.1-0.1 0.1-0.2 0.2-0.5 0.3-0.9 0.6-1.3 0.9-1.4 0.8-3.3 1.4-4.8 2.2v-0.1c-0.4 0.2-0.9 0.1-0.8 0.5-0.3 0.2-0.6 0.4-0.9 0.6-0.1 0-0.1 0-0.2 0 0 0-0.1-0.1-0.2-0.1-0.2 0-0.2 0-0.3 0.1-1.3 0.1-3 0.7-3.5 1.1-0.5-0.3-2.8 0.2-3.2 0.4 0.2 0.3 0.8 0 1.3 0-0.3 0.1-0.6 0.2-0.7 0.4-0.1 0-0.1 0-0.2 0-0.1-0.3-0.4 0-0.5-0.1h0.1c-0.1-0.4-0.4-0.6-0.9-0.5 0 0.2 0 0.3-0.1 0.5 0.2 0 0.8-0.3 0.8 0-0.1 0-0.1 0.1 0 0.1-0.2 0.2-0.5 0.2-0.7 0.3-0.4 0-0.9 0-1.3 0-0.1-0.1-0.2-0.1-0.4-0.2-0.1 0.1-0.3 0.1-0.4 0.2-0.6 0-1.3 0.1-1.8 0.2 0-0.2 0-0.4-0.2-0.4-0.3 0.4-0.9-0.1-1.6 0.1-0.7-0.2 0.4 0.3 1.4 0.5-0.1 0.1-0.2 0.2-0.5 0.3M37.5 86.6c-1.4-1.3-4.3-1.9-4.8-2.9-0.8-0.1-2-1.6-3-1.8 0.5 0 0.1-0.3 0-0.5-0.2 0.2-0.4 0.3-0.6 0.3 0-0.8-0.8-1.3-1.5-1.8 0.5 0.3 0.9 0.5 1.5 0.6 0-0.2 0-0.4 0.2-0.4 0.7 0.7 1.5 1.4 2.4 2.1 1.2 1.1 7.4 3.9 8.5 4.4 0 0-0.2 0.4-0.1 0.4 0.5 0.3 0.9-0.3 1 0.4-1.6 0.2-2.2-0.9-3.6-0.8M83.6 63.4v0.1 0c-0.1 0 0-0.1 0-0.1M43.2 17.1c-0.1 0.1-0.2 0.1-0.2 0.1 0-0.1 0.1-0.1 0.2-0.1M41.3 17.6c0 0.1 0 0.1 0 0 0 0.1 0 0.1 0 0 0 0.1 0 0 0 0M34.7 19.7v0c0.1-0.1 0.1-0.1 0.2-0.1-0.1 0-0.2 0.1-0.2 0.1M50.7 16.4c-0.2 0-0.3 0-0.4-0.1 0.1 0 0.2 0 0.3 0h0.1c0 0 0 0 0 0.1M52.5 16.6c-0.1-0.1-0.4-0.2-0.7-0.2 0-0.1 0.1-0.2 0.1-0.2 0.1 0 0.2 0 0.3 0 0 0 0.1 0 0.1 0.1 0 0 0 0 0-0.1 0.1 0 0.1 0 0.2 0 0.1 0.2 0.2 0.3 0 0.4M55.8 16.9c-0.5 0.1-0.8-0.1-1.3-0.4 0.3 0 0.7 0.1 1 0.2 0.1 0 0.2 0.1 0.3 0.2M91.4 31.1c-0.2 0.1-0.3 0.1-0.5-0.3-1.6-3.4-4.5-8.3-8.7-12.4-4.1-4.2-9.6-7.6-14.6-9.4 0.3 0.1 0.7 0.3 0.5 0.5-4.4-1.7-8.6-2.7-12.6-3.1-10.8-1.7-22.1 0.6-30.8 6.2 0.1 0.2 0.1 0.3-0.2 0.5-3.2 2-7.7 5.5-11.3 10.1-3.6 4.6-6.4 10.4-7.6 15.6 0.1-0.3 0.2-0.8 0.4-0.6-2.6 10.3-1.9 19.1 1.7 26.7 0.2-0.2-0.5-1.2 0.1-1.1 0.4 1.1 0.9 2.3 1.5 3.4 0.7 1.6 1.5 3.7 2.6 4.2-2.8-5.5-4.7-11.8-4.9-17.4 0.4 0.8 0.3 2.5 0.9 3.2 0.2-3.8-0.7-8.9 0.6-12.5-0.3 1.9-0.5 4.5-0.3 7.1 0 1.9 0.9 7.2 1.5 7.7-0.1-0.1-0.1-0.6 0-0.6 0.3 0.6-0.4 0.9 0.1 1 0-0.2 0.1-0.2 0.2-0.2 1 2.2 2.3 5.6 3.3 7.3 1.2 2.2 2.8 4.2 4.6 6 0 0.1 0.1 0.1 0.1 0.2 0.2 0.5 0.9 1.1 1.1 1.5 0.1 0.2-0.1 0.5 0 0.7 1.5 2.8 3.7 5.6 6.4 7.8 1.7 2 4.4 4.1 7.7 5.9 3.2 1.7 6.9 3.1 10.3 3.9 2.4 0.6 5.3 0.7 7.1 1.1 2.4 0.5 6.6-0.2 8.7-0.6 12.6-1.9 25.1-10.5 31.4-22.9 6.5-12.5 6.3-27.8 0.7-39.5" fill="#ffffff" fill-rule="nonzero" stroke="none" stroke-width="1" stroke-linecap="butt" stroke-linejoin="miter" stroke-miterlimit="10" stroke-dasharray="" stroke-dashoffset="0" font-family="none" font-weight="none" font-size="none" text-anchor="none" style="mix-blend-mode: normal" data-fill-palette-color="tertiary"/></g><g transform="matrix(1,0,0,1,80,153.76443052124392)"><svg viewBox="0 0 160 52.47113895751216" height="52.47113895751216" width="160"><g><svg viewBox="0 0 262.9579626709982 86.23564874558902" height="52.47113895751216" width="160"><g transform="matrix(1,0,0,1,102.9579626709982,25.409211547465826)"><svg viewBox="0 0 160 35.417225650657365" height="35.417225650657365" width="160"><g id="textblocktransform"><svg viewBox="0 0 160 35.417225650657365" height="35.417225650657365" width="160" id="textblock"><g><svg viewBox="0 0 160 35.417225650657365" height="35.417225650657365" width="160"><g transform="matrix(1,0,0,1,0,0)"><svg width="160" viewBox="1.65 -40.4 186.34 41.25" height="35.417225650657365" data-palette-color="#ffffff"><g class="wordmark-text-0" data-fill-palette-color="primary" id="text-0"><path d="M30.55-37.9L35.6-37.9 21.35 0.45 15.95 0.45 1.65-37.9 6.75-37.9 18.65-5.6 30.55-37.9ZM41.8-32.85L41.8-40.4 46.5-40.4 46.5-32.85 41.8-32.85ZM41.8 0L41.8-27.65 46.5-27.65 46.5 0 41.8 0ZM68.65-28.25Q73.75-28.25 76.22-25.55 78.7-22.85 78.7-16.65L78.7-16.65 78.7 0 74 0 74-16.65Q74-20.55 72.67-22.2 71.35-23.85 68-23.85L68-23.85Q64.1-23.85 60.2-20.45L60.2-20.45 60.2 0 55.5 0 55.5-27.65 60.2-27.65 60.2-24.7Q64.3-28.25 68.65-28.25L68.65-28.25ZM99.14 0.85Q92.69 0.8 89.22-3.15 85.74-7.1 85.74-13.85L85.74-13.85Q85.74-20.6 89.22-24.5 92.69-28.4 99.14-28.45L99.14-28.45Q101.39-28.45 103.02-28.13 104.64-27.8 106.49-27.05L106.49-27.05 106.49-22.5Q104.69-23.35 103.07-23.7 101.44-24.05 99.49-24.05L99.49-24.05Q94.84-24 92.74-21.28 90.64-18.55 90.64-13.9L90.64-13.9Q90.64-9.15 92.74-6.35 94.84-3.55 99.39-3.5L99.39-3.5Q102.94-3.5 107.14-5.65L107.14-5.65 108.64-1.55Q104.09 0.85 99.14 0.85L99.14 0.85ZM117.94-13.45Q118.04-8.85 120.24-6.1 122.44-3.35 127.24-3.35L127.24-3.35Q130.89-3.35 135.24-5.4L135.24-5.4 136.69-1.5Q132.14 0.85 126.84 0.85L126.84 0.85Q122.44 0.85 119.34-1 116.24-2.85 114.64-6.15 113.04-9.45 113.04-13.85L113.04-13.85Q113.04-18.5 114.72-21.78 116.39-25.05 119.24-26.75 122.09-28.45 125.64-28.45L125.64-28.45Q131.09-28.45 134.19-25.05 137.29-21.65 137.29-15.3L137.29-15.3 137.29-13.45 117.94-13.45ZM125.64-24.25Q119.44-24.25 118.24-17.4L118.24-17.4 132.34-17.4Q132.09-20.9 130.44-22.58 128.79-24.25 125.64-24.25L125.64-24.25ZM157.14-28.25Q162.24-28.25 164.71-25.55 167.19-22.85 167.19-16.65L167.19-16.65 167.19 0 162.49 0 162.49-16.65Q162.49-20.55 161.16-22.2 159.84-23.85 156.49-23.85L156.49-23.85Q152.59-23.85 148.69-20.45L148.69-20.45 148.69 0 143.99 0 143.99-27.65 148.69-27.65 148.69-24.7Q152.79-28.25 157.14-28.25L157.14-28.25ZM187.99-22.95L181.59-22.95 181.59-7.15Q181.59-5.15 182.21-4.42 182.84-3.7 184.53-3.7L184.53-3.7Q186.03-3.7 187.74-4.1L187.74-4.1 187.74 0.15Q185.49 0.65 183.74 0.65L183.74 0.65Q179.94 0.65 178.41-0.9 176.88-2.45 176.88-6.1L176.88-6.1 176.88-22.95 173.28-22.95 173.28-27.3 176.88-27.3 176.88-36.8 181.59-36.8 181.59-27.3 187.99-27.3 187.99-22.95Z" fill="#ffffff" data-fill-palette-color="primary"/></g></svg></g></svg></g></svg></g></svg></g><g><svg viewBox="0 0 86.23564874558902 86.23564874558902" height="86.23564874558902" width="86.23564874558902"><g><svg/></g><g id="icon-0"><svg viewBox="0 0 86.23564874558902 86.23564874558902" height="86.23564874558902" width="86.23564874558902"><g><path d="M0 43.118c0-23.813 19.305-43.118 43.118-43.118 23.813 0 43.118 19.305 43.118 43.118 0 23.813-19.305 43.118-43.118 43.118-23.813 0-43.118-19.305-43.118-43.118zM43.118 83.042c22.049 0 39.924-17.875 39.924-39.924 0-22.049-17.875-39.924-39.924-39.924-22.049 0-39.924 17.875-39.924 39.924 0 22.049 17.875 39.924 39.924 39.924z" data-fill-palette-color="accent" fill="#81ffd9" stroke="transparent"/></g><g transform="matrix(1,0,0,1,18.16561876945102,21.940114845489777)"><svg viewBox="0 0 49.90441120668698 42.35541905460946" height="42.35541905460946" width="49.90441120668698"><g><svg xmlns="http://www.w3.org/2000/svg" xmlns:xlink="http://www.w3.org/1999/xlink" version="1.1" x="0" y="0" viewBox="0.1646825396825397 4 49.83630952380953 42.29761904761906" enable-background="new 0 0 50.4 50.4" xml:space="preserve" width="49.90441120668698" height="42.35541905460946" class="icon-cg-0" data-fill-palette-color="accent" id="cg-0"><g fill="#81ffd9" data-fill-palette-color="accent"><rect x="0.166" y="31.438" width="3.515" height="3.518" fill="#81ffd9" data-fill-palette-color="accent"/><rect x="5.93" y="31.438" width="3.515" height="3.518" fill="#81ffd9" data-fill-palette-color="accent"/><rect x="11.834" y="31.438" width="3.516" height="3.518" fill="#81ffd9" data-fill-palette-color="accent"/><rect x="17.599" y="31.438" width="3.514" height="3.518" fill="#81ffd9" data-fill-palette-color="accent"/><rect x="23.502" y="31.438" width="3.515" height="3.518" fill="#81ffd9" data-fill-palette-color="accent"/><rect x="29.267" y="31.438" width="3.515" height="3.518" fill="#81ffd9" data-fill-palette-color="accent"/><rect x="35.17" y="31.438" width="3.517" height="3.518" fill="#81ffd9" data-fill-palette-color="accent"/><rect x="40.937" y="31.438" width="3.515" height="3.518" fill="#81ffd9" data-fill-palette-color="accent"/><rect x="0.166" y="37.269" width="3.515" height="3.514" fill="#81ffd9" data-fill-palette-color="accent"/><rect x="5.93" y="37.269" width="3.515" height="3.514" fill="#81ffd9" data-fill-palette-color="accent"/><rect x="11.834" y="37.269" width="3.516" height="3.514" fill="#81ffd9" data-fill-palette-color="accent"/><rect x="17.599" y="37.269" width="3.514" height="3.514" fill="#81ffd9" data-fill-palette-color="accent"/><rect x="23.502" y="37.269" width="3.515" height="3.514" fill="#81ffd9" data-fill-palette-color="accent"/><rect x="29.267" y="37.269" width="3.515" height="3.514" fill="#81ffd9" data-fill-palette-color="accent"/><rect x="35.17" y="37.269" width="3.517" height="3.514" fill="#81ffd9" data-fill-palette-color="accent"/><rect x="40.937" y="37.269" width="3.515" height="3.514" fill="#81ffd9" data-fill-palette-color="accent"/><rect x="0.166" y="43.154" width="3.515" height="3.514" fill="#81ffd9" data-fill-palette-color="accent"/><rect x="5.93" y="43.154" width="3.515" height="3.514" fill="#81ffd9" data-fill-palette-color="accent"/><rect x="11.834" y="43.154" width="26.853" height="3.514" fill="#81ffd9" data-fill-palette-color="accent"/><rect x="40.937" y="43.154" width="3.515" height="3.514" fill="#81ffd9" data-fill-palette-color="accent"/><rect x="46.887" y="31.438" width="3.514" height="3.518" fill="#81ffd9" data-fill-palette-color="accent"/><rect x="46.887" y="37.269" width="3.514" height="3.514" fill="#81ffd9" data-fill-palette-color="accent"/><rect x="46.887" y="43.154" width="3.514" height="3.514" fill="#81ffd9" data-fill-palette-color="accent"/><rect x="6" y="4.032" width="38.521" height="24.06" fill="#81ffd9" data-fill-palette-color="accent"/></g></svg></g></svg></g></svg></g></svg></g></svg></g></svg></g></svg></g><defs/></svg><rect width="320" height="360" fill="none" stroke="none" visibility="hidden"/></g></svg></g></svg>